<svg width="171" height="31" viewBox="0 0 171 31" fill="none" xmlns="http://www.w3.org/2000/svg">
<path d="M0.761364 24H11.2045C16.3523 24 19.3068 21.25 19.3068 17.4886C19.3068 14.125 16.8636 12.0114 14.0455 11.8864V11.6591C16.6023 11.125 18.3977 9.27273 18.3977 6.61364C18.3977 3.10227 15.6932 0.727272 10.4659 0.727272H0.761364V24ZM6.38636 19.4659V13.9205H9.96591C12.1136 13.9205 13.4318 15.0568 13.4318 16.8409C13.4318 18.4886 12.2955 19.4659 9.86364 19.4659H6.38636ZM6.38636 10.2955V5.19318H9.59091C11.4659 5.19318 12.6591 6.15909 12.6591 7.70454C12.6591 9.34091 11.3409 10.2955 9.5 10.2955H6.38636ZM31.7591 24.3295C37.2477 24.3295 40.5773 20.7045 40.5773 15.3295C40.5773 9.94318 37.2477 6.31818 31.7591 6.31818C26.2705 6.31818 22.9409 9.94318 22.9409 15.3295C22.9409 20.7045 26.2705 24.3295 31.7591 24.3295ZM31.7932 20.1364C29.7364 20.1364 28.6 18.1818 28.6 15.2955C28.6 12.3977 29.7364 10.4318 31.7932 10.4318C33.7818 10.4318 34.9182 12.3977 34.9182 15.2955C34.9182 18.1818 33.7818 20.1364 31.7932 20.1364ZM53.1716 24.3295C58.6602 24.3295 61.9898 20.7045 61.9898 15.3295C61.9898 9.94318 58.6602 6.31818 53.1716 6.31818C47.683 6.31818 44.3534 9.94318 44.3534 15.3295C44.3534 20.7045 47.683 24.3295 53.1716 24.3295ZM53.2057 20.1364C51.1489 20.1364 50.0125 18.1818 50.0125 15.2955C50.0125 12.3977 51.1489 10.4318 53.2057 10.4318C55.1943 10.4318 56.3307 12.3977 56.3307 15.2955C56.3307 18.1818 55.1943 20.1364 53.2057 20.1364ZM76.2886 6.54545H73.1409V2.36364H67.5841V6.54545H65.2773V10.6364H67.5841V19.125C67.55 22.6591 69.8455 24.4318 73.7659 24.25C75.1068 24.1818 76.0727 23.9091 76.6068 23.75L75.7659 19.7386C75.5273 19.7955 74.9705 19.9091 74.55 19.9091C73.6523 19.9091 73.1409 19.5455 73.1409 18.5114V10.6364H76.2886V6.54545ZM88.6841 24.3295C93.5932 24.3295 96.6386 21.4773 96.7864 17.1591H91.5932C91.3886 19.0114 90.275 20.0227 88.7523 20.0227C86.7977 20.0227 85.525 18.375 85.525 15.2727C85.525 12.1932 86.8091 10.5455 88.7523 10.5455C90.3432 10.5455 91.3773 11.625 91.5932 13.4091H96.7864C96.6614 9.11364 93.525 6.31818 88.6727 6.31818C83.1841 6.31818 79.8659 9.97727 79.8659 15.3295C79.8659 20.6591 83.1614 24.3295 88.6841 24.3295ZM106.151 24.2955C108.582 24.2955 110.264 23.3523 111.219 21.5682H111.355V24H116.582V12.1364C116.582 8.44318 113.298 6.31818 108.855 6.31818C104.162 6.31818 101.503 8.68182 101.06 11.8636L106.185 12.0455C106.423 10.9318 107.344 10.25 108.81 10.25C110.173 10.25 111.037 10.9091 111.037 12.0795V12.1364C111.037 13.2045 109.878 13.4318 106.901 13.6932C103.366 13.9886 100.412 15.2955 100.412 19.1591C100.412 22.6136 102.81 24.2955 106.151 24.2955ZM107.866 20.6591C106.582 20.6591 105.673 20.0455 105.673 18.8864C105.673 17.7614 106.56 17.0795 108.139 16.8409C109.173 16.6932 110.446 16.4659 111.071 16.1364V17.7955C111.071 19.5 109.639 20.6591 107.866 20.6591ZM121.58 24H127.137V13.6705C127.137 11.9432 128.148 10.8409 129.603 10.8409C131.046 10.8409 132.001 11.8523 132.001 13.4659V24H137.341V13.5795C137.341 11.9091 138.262 10.8409 139.796 10.8409C141.205 10.8409 142.205 11.7841 142.205 13.5227V24H147.762V12.25C147.762 8.55682 145.489 6.31818 142.194 6.31818C139.614 6.31818 137.58 7.67045 136.932 9.75H136.751C136.285 7.65909 134.41 6.31818 131.989 6.31818C129.603 6.31818 127.785 7.625 127.057 9.75H126.864V6.54545H121.58V24ZM152.805 30.5455H158.362V21.1705H158.476C159.18 22.7841 160.748 24.25 163.385 24.25C167.248 24.25 170.362 21.2273 170.362 15.2841C170.362 9.125 167.066 6.31818 163.419 6.31818C160.657 6.31818 159.146 7.93182 158.476 9.53409H158.305V6.54545H152.805V30.5455ZM158.248 15.2727C158.248 12.4205 159.43 10.6591 161.464 10.6591C163.521 10.6591 164.657 12.4659 164.657 15.2727C164.657 18.0909 163.521 19.9205 161.464 19.9205C159.43 19.9205 158.248 18.1023 158.248 15.2727Z" fill="white"/>
</svg>
