<svg width="40" height="40" viewBox="0 0 40 40" fill="none" xmlns="http://www.w3.org/2000/svg">
<circle cx="20" cy="20" r="20" fill="url(#paint0_linear_195_1736)"/>
<path fill-rule="evenodd" clip-rule="evenodd" d="M21.3883 29.0181C24.0668 29.0181 26.0475 27.9131 27.3306 25.7032C28.2769 24.0638 28.75 22.0628 28.75 19.7001C28.75 18.7679 28.6377 17.7875 28.4132 16.7588C28.1887 15.7302 27.7676 14.7739 27.1502 13.8899C26.3803 12.797 25.3739 12.0456 24.1309 11.6357C23.4012 11.3947 22.487 11.2661 21.3883 11.25H13.75V29.0181H21.3883Z" fill="white"/>
<mask id="mask0_195_1736" style="mask-type:alpha" maskUnits="userSpaceOnUse" x="13" y="11" width="16" height="19">
<path fill-rule="evenodd" clip-rule="evenodd" d="M21.3883 29.0181C24.0668 29.0181 26.0475 27.9131 27.3306 25.7032C28.2769 24.0638 28.75 22.0628 28.75 19.7001C28.75 18.7679 28.6377 17.7875 28.4132 16.7588C28.1887 15.7302 27.7676 14.7739 27.1502 13.8899C26.3803 12.797 25.3739 12.0456 24.1309 11.6357C23.4012 11.3947 22.487 11.2661 21.3883 11.25H13.75V29.0181H21.3883Z" fill="white"/>
</mask>
<g mask="url(#mask0_195_1736)">
<path fill-rule="evenodd" clip-rule="evenodd" d="M17.3465 25.932V14.3358H20.7627C22.4467 14.3358 23.5714 14.8199 24.1368 15.7883C24.7022 16.7567 24.9848 18.1449 24.9848 19.9531C24.9848 21.263 24.7964 22.3921 24.4195 23.3404C23.7298 25.0681 22.5109 25.932 20.7627 25.932H17.3465Z" fill="#0E73F6"/>
</g>
<defs>
<linearGradient id="paint0_linear_195_1736" x1="-7.73094e-06" y1="40" x2="40" y2="-1.72677e-05" gradientUnits="userSpaceOnUse">
<stop stop-color="#0974E9"/>
<stop offset="1" stop-color="#3593F9"/>
</linearGradient>
</defs>
</svg>
